# xmcd
#
# Track frame offsets: 
#        182
#        12817
#        25552
#        40830
#        53377
#        64172
#        77425
#        88790
#        102310
#        114370
#        126210
#        138935
#        151522
#        165085
#        179430
#        192167
#        203372
#        216667
#        229312
#
# Disc length: 3357 seconds
#
# Revision: 3
# Processed by: cddbd v1.5.2PL0 Copyright (c) Steve Scherf et al.
# Submitted via: ExactAudioCopyFreeDBPlugin 1.0
#
DISCID=e30d1b13
DTITLE=Big Joe Turner - Big, Bad and Blue:  The Big Joe Turner Anthology
DYEAR=1994
DGENRE=Rhythm and Blues
TTITLE0=Jumpin' at the Jubilee
TTITLE1=Still in the Dark
TTITLE2=Chains of Love
TTITLE3=The Chill is On
TTITLE4=Bump Miss Susie
TTITLE5=Sweet Sixteen
TTITLE6=Don't You Cry
TTITLE7=Still in Love
TTITLE8=Honey Hush
TTITLE9=Crawdad Hole
TTITLE10=TV Mama
TTITLE11=Oke-She-Moke-She-Pop
TTITLE12=Shake, Rattle and Roll
TTITLE13=You Know I Love You
TTITLE14=Married Woman
TTITLE15=Well All Right
TTITLE16=Ti-Ri-Lee
TTITLE17=Flip Flop and Fly
TTITLE18=In the Evenin' (When the Sun Goes Down)
EXTD=
EXTT0=
EXTT1=
EXTT2=
EXTT3=
EXTT4=
EXTT5=
EXTT6=
EXTT7=
EXTT8=
EXTT9=
EXTT10=
EXTT11=
EXTT12=
EXTT13=
EXTT14=
EXTT15=
EXTT16=
EXTT17=
EXTT18=
PLAYORDER=
